<?xml version="1.0" standalone="no"?>
<!DOCTYPE svg PUBLIC "-//W3C//DTD SVG 20010904//EN"
 "http://www.w3.org/TR/2001/REC-SVG-20010904/DTD/svg10.dtd">
<svg version="1.0" xmlns="http://www.w3.org/2000/svg"
 width="1256.000000pt" height="1256.000000pt" viewBox="0 0 1256.000000 1256.000000"
 preserveAspectRatio="xMidYMid meet">
<metadata>
Created by potrace 1.11, written by Peter Selinger 2001-2013
</metadata>
<g transform="translate(0.000000,1256.000000) scale(0.100000,-0.100000)"
fill="#000000" stroke="none">
<path d="M0 6205 l0 -1135 6280 0 6280 0 0 1135 0 1135 -6280 0 -6280 0 0
-1135z m1530 625 l0 -141 -125 -386 c-69 -213 -125 -390 -125 -395 0 -4 56 -8
125 -8 l125 0 0 -135 0 -135 -317 2 -318 3 -3 91 -3 90 131 426 c71 234 133
433 136 442 5 13 -10 16 -113 18 l-118 3 -3 133 -3 132 306 0 305 0 0 -140z
m1750 -530 l0 -670 -165 0 -165 0 0 39 0 40 -57 -39 c-116 -80 -249 -72 -326
19 -50 60 -52 77 -52 496 0 431 1 441 62 500 89 86 253 82 351 -8 l22 -20 0
156 0 157 165 0 165 0 0 -670z m490 580 l0 -90 -170 0 -170 0 0 90 0 90 170 0
170 0 0 -90z m2154 43 c3 -27 17 -205 31 -398 14 -192 29 -372 34 -400 l8 -50
2 63 c2 103 68 710 87 805 l6 27 178 0 179 0 5 -55 c3 -30 8 -79 11 -107 5
-56 40 -499 51 -658 3 -52 8 -96 9 -98 2 -2 6 41 10 95 3 54 15 190 26 303 18
181 29 274 55 468 l7 52 169 0 170 0 -6 -27 c-3 -16 -38 -315 -78 -665 l-72
-638 -217 0 -217 0 -16 88 c-9 48 -30 179 -46 292 -17 113 -34 225 -38 250 -6
38 -14 -3 -51 -265 -23 -170 -45 -322 -48 -337 l-5 -28 -214 0 -213 0 -6 33
c-3 17 -37 307 -75 642 -38 336 -71 620 -73 633 l-4 22 167 0 168 0 6 -47z
m3886 -43 l0 -90 -170 0 -170 0 0 90 0 90 170 0 170 0 0 -90z m-7655 -154 c70
-21 137 -68 170 -117 54 -82 58 -106 63 -359 6 -353 -11 -448 -95 -535 -49
-51 -123 -83 -220 -96 -162 -22 -315 22 -380 109 -55 73 -64 121 -70 377 -8
320 11 447 78 528 38 46 97 81 169 102 67 18 212 14 285 -9z m2284 -2 c64 -19
130 -69 159 -121 34 -63 42 -166 42 -585 l0 -378 -160 0 -160 0 0 40 c0 45
-11 51 -29 17 -25 -46 -79 -72 -160 -75 -67 -3 -82 0 -131 25 -45 23 -60 37
-80 78 -23 47 -25 60 -25 200 0 126 3 155 18 183 22 41 83 80 190 123 45 18
108 45 139 61 50 24 58 32 64 64 4 20 4 66 1 102 -6 73 -29 105 -68 95 -30 -8
-39 -42 -39 -149 l0 -94 -155 0 -155 0 0 63 c0 134 32 231 92 282 43 36 126
74 186 85 62 12 208 3 271 -16z m868 -5 c77 -29 137 -80 167 -141 22 -47 46
-167 46 -234 l0 -24 -160 0 -160 0 0 104 c0 95 -2 106 -21 120 -14 9 -29 12
-43 7 -32 -13 -38 -74 -34 -396 3 -261 5 -294 21 -319 14 -20 25 -26 45 -24
41 5 52 39 52 161 l0 107 151 0 152 0 -8 -102 c-4 -60 -15 -124 -26 -154 -27
-70 -88 -137 -157 -171 -50 -24 -71 -28 -168 -32 -170 -5 -266 33 -330 129
-45 68 -56 134 -61 385 -6 253 5 382 36 443 25 48 91 109 146 133 94 42 251
45 352 8z m2296 1 c65 -25 109 -56 137 -97 47 -68 51 -111 57 -560 l6 -423
-167 0 -166 0 0 43 0 42 -26 -33 c-38 -48 -92 -72 -162 -72 -115 0 -197 51
-221 137 -14 48 -14 277 -1 322 19 66 60 94 259 178 143 59 141 57 141 168 0
92 -8 116 -41 128 -9 3 -26 -1 -38 -9 -19 -14 -21 -24 -21 -125 l0 -109 -155
0 -155 0 0 88 c0 51 7 111 16 141 29 99 130 179 254 200 76 13 224 3 283 -19z
m865 -171 l-3 -184 -50 -6 c-64 -8 -100 -25 -122 -58 -16 -23 -18 -60 -21
-343 l-3 -318 -165 0 -164 0 0 545 0 545 165 0 166 0 -7 -67 -7 -68 31 41 c17
23 46 53 64 67 36 27 98 48 111 37 4 -3 6 -89 5 -191z m707 190 c57 -16 104
-55 129 -108 20 -45 21 -61 24 -510 2 -255 1 -468 -1 -475 -3 -8 -52 -10 -164
-8 l-160 3 -6 437 c-3 241 -9 445 -12 455 -9 22 -58 23 -76 0 -11 -13 -15
-101 -17 -455 l-3 -438 -165 0 -164 0 0 545 0 545 170 0 170 0 0 -46 0 -46 26
32 c57 67 155 95 249 69z m1440 -23 c96 -57 106 -124 103 -681 l-3 -400 -165
0 -165 0 -3 444 c-1 308 -6 448 -13 458 -6 7 -24 13 -40 13 -46 0 -49 -31 -49
-497 l0 -423 -165 0 -165 0 0 550 0 550 170 0 170 0 -6 -47 -7 -48 45 43 c25
24 64 50 89 58 64 20 149 12 204 -20z m570 6 c22 -11 51 -32 64 -46 29 -31 37
-27 45 19 l7 35 161 0 160 0 -4 -532 -3 -533 -30 -53 c-52 -96 -140 -144 -290
-161 -86 -10 -206 -2 -273 18 -100 30 -158 97 -170 197 l-5 44 159 0 159 0 15
-33 c17 -36 53 -47 83 -24 15 10 20 31 24 95 3 45 3 82 0 82 -3 0 -23 -11 -43
-25 -122 -83 -299 -51 -364 65 l-25 45 0 330 c0 363 4 392 63 448 61 59 184
72 267 29z m-7415 -537 l0 -545 -170 0 -170 0 0 545 0 545 170 0 170 0 0 -545z
m6040 -5 l0 -550 -170 0 -170 0 0 550 0 550 170 0 170 0 0 -550z"/>
<path d="M2862 6538 c-17 -17 -17 -699 0 -716 17 -17 53 -15 69 5 18 20 26
653 10 696 -8 21 -17 27 -39 27 -15 0 -33 -5 -40 -12z"/>
<path d="M1972 6538 c-16 -16 -17 -680 -2 -709 12 -21 50 -25 68 -7 17 17 17
699 0 716 -7 7 -21 12 -33 12 -12 0 -26 -5 -33 -12z"/>
<path d="M4252 6106 c-34 -37 -41 -53 -47 -101 -9 -69 -1 -161 16 -181 6 -8
25 -14 40 -14 22 0 32 6 39 26 12 31 13 314 1 314 -5 0 -27 -20 -49 -44z"/>
<path d="M7418 6117 c-50 -45 -58 -71 -58 -178 0 -105 9 -129 49 -129 48 0 52
14 49 184 l-3 157 -37 -34z"/>
<path d="M11199 6533 c-11 -13 -14 -72 -14 -285 0 -255 1 -270 19 -284 24 -17
28 -17 52 0 18 14 19 30 22 280 2 177 -1 272 -8 286 -13 24 -52 26 -71 3z"/>
</g>
</svg>
